<svg xmlns="http://www.w3.org/2000/svg" width="4168" height="4167" viewBox="0 0 4168 4167">
  <defs>
    <style>
      .cls-1 {
        fill: #f39017;
      }

      .cls-1, .cls-2 {
        fill-rule: evenodd;
      }

      .cls-2 {
        fill: #122a44;
      }
    </style>
  </defs>
  <path id="Заливка_цветом_2" data-name="Заливка цветом 2" class="cls-1" d="M1777,937c25.28-.154,42.18,3.128,57,13l12,11h460q9.495-7.5,19-15c20.07-11.606,57.98-11.575,78,0,24.06,13.91,37.83,34.863,43,68q-1.995,15.495-4,31,39.99,69.495,80,139,66.99,115.995,134,232c4.23,6.44,13.86,6.47,21,10,22.74,11.25,40.09,30.99,46,59,8.02,38.02-13.85,68.92-34,83q-9.495,4.995-19,10-12.495,21.495-25,43-91.485,158.49-183,317l-34,59q-1.005,10.5-2,21c-3.75,14.89-12.19,30.72-22,40-19.87,18.79-59.59,30.94-93,16l-23-17H1863q-6.495,6-13,12c-24.42,15.69-66.44,14.41-90-1-16.62-10.87-30.1-30.62-35-53q-0.495-12.495-1-25-20.505-36-41-72-96.99-167.985-194-336-9-3.495-18-7c-17.85-8.51-34.32-24.44-42-43-26.83-64.86,23.22-99.85,70-114l199-344q7.005-12.495,14-25c1.82-9.92-8.2-33.27-3-52C1719.48,959.24,1743.47,952.391,1777,937Zm91,98c-2.95,20.44-14.91,31.82-25,45q8.505,24.99,17,50c13.36,37.08,25.68,73.09,40,108,32.95,80.34,64.67,158,104,232q34.995,61.5,70,123-12.495,20.505-25,41c-0.67-.33-1.33-0.67-2-1q-21-33.495-42-67-42.99-72.99-86-146c-41.73-71.14-77.93-148.76-111-227q-18-47.49-36-95c-1.67.33-3.33,0.67-5,1q-75.495,131.985-151,264-24.495,41.49-49,83,4.005,6.495,8,13,64.5-7.995,129-16,60-4.005,120-8l73-3q7.5,14.505,15,29c-116.93,9.56-223.16,44.31-329,62-2.8,16.53-13.52,26.12-22,37q105.495,182.475,211,365c19.7-6.09,39.59-5.76,62-3l62-65c49.24-61.03,102.93-118.51,149-183q38.49-57,77-114,20.505-34.5,41-69c12.71-.33,31.91-1.7,41,3-60.39,104.85-120.77,205.77-189,302-41.98,59.22-92.43,112.36-134,171q2.505,7.995,5,16h380q4.995-14.505,10-29-17.505-22.995-35-46c-30.72-41.89-60.73-84.01-90-128q-21.495-32.49-43-65,9-14.505,18-29c1,0.67,2,1.33,3,2,12.93,29.13,43.69,54.43,63,79,28.45,36.19,59.77,68.85,90,103,14.83,16.75,29.06,36.51,47,50,21.06-6.42,40.29,3.16,56,7Q2489,1746.52,2593,1566c-13.04-16.31-22.4-26.34-31-49q-74.985-16.005-150-32c-66.38-14.15-135.38-18.03-205-30q-62.49-4.005-125-8c-19.97-3.23-50.32,5.47-65-1q-7.5-14.505-15-29c0.33-.67.67-1.33,1-2,75.29-.19,163.85-13.5,238-2q39,1.005,78,2,57.99,4.995,116,10,72.495,11.505,145,23,3-3.495,6-7-98.985-171.99-198-344l-10,3c-5.33,34.98-26.78,71.42-40,102-28.57,66.08-56.15,130.93-92,190q-16.005-1.005-32-2v-1q26.49-67.5,53-135c20.89-54.12,29.86-112.47,50-169-17.48-12.13-25.41-27.59-33-50H1868Z"/>
  <path id="Заливка_цветом_1" data-name="Заливка цветом 1" class="cls-2" d="M2766,2307q111.495,263.97,223,528h1v-2q83.985-188.985,168-378,21-47.49,42-95c4.83-11.05,9.18-33.97,19-40q49.995-.495,100-1-164.49,370.965-329,742c-0.67-.33-1.33-0.67-2-1q-110.985-257.97-222-516v2q-110.985,257.475-222,515v-2q-164.49-369.96-329-740,49.995,0.495,100,1c8.83,6.89,12.27,25.17,17,36q22.005,49.995,44,100,83.985,189.48,168,379c0.67-.33,1.33-0.67,2-1Q2656,2570.525,2766,2307Zm-1504,4c193.78-3.33,317.78,97.38,372,235,21.59,54.79,34.98,140.74,19,213-6.54,29.57-14.88,57.56-26,83-40.42,92.45-121.04,161.07-222,193-28.47,9-59.5,12.39-92,18-58.84,10.16-124.38-4.8-167-18-135.83-42.08-217.656-132.72-251-278-8.4-36.59-11.887-89.4-4-130,5.542-28.53,11.215-56.36,21-81,41.312-104.01,120.43-176.17,228-214q36.495-8.505,73-17Q1237.495,2313.005,1262,2311Zm687,0c88.62-1.61,165.73,21.6,206,69q-34.5,25.995-69,52c-13.85-8.07-26.23-19.44-42-26-65.82-27.38-158.93-11.72-190,35-10.47,15.75-22.82,52.35-12,79,20.94,51.58,87.26,74.58,140,95,98.15,38,245.66,99.7,219,254-15.53,89.88-64.4,141.78-142,169-161.27,56.57-320.51-21.07-367-134q46.5-9.495,93-19,8.505,13.995,17,28c12.33,16.38,29.9,30.46,48,41,23.67,13.78,53.95,19,91,19,91.4,0.01,149.2-30.78,164-107,9.3-47.87-10.14-90.82-34-110-84.35-67.79-225.81-83.08-293-168-35.72-45.14-48.01-108.13-17-170,12.16-24.27,27.32-45.42,48-61,24.92-18.78,56.67-31.89,92-40Zm-697,82q-16.5,1.995-33,4-24.495,6.495-49,13c-78.19,30.72-134.28,84.91-165,163-11.678,29.68-24.759,78.22-18,119,4.374,26.39,1.835,47.63,8,70,26.76,97.07,83.76,158.14,173,193,32.01,12.5,84.88,26.43,134,18,116.69-20.04,193.15-68.54,234-163,9.29-21.49,15.61-46.08,21-71,12.82-59.22-.61-128.82-18-171C1494.18,2459.25,1406.7,2392.41,1252,2393Z"/>
</svg>
